<svg width="26" height="26" viewBox="0 0 26 26" fill="none" xmlns="http://www.w3.org/2000/svg">
<path d="M13.0076 2.34147C16.4831 2.34147 16.8947 2.35671 18.2615 2.41766C19.5318 2.47353 20.2177 2.68685 20.675 2.86462C21.2797 3.09826 21.7166 3.38269 22.1688 3.83473C22.6261 4.29185 22.9056 4.72358 23.1393 5.32799C23.3172 5.78511 23.5306 6.47587 23.5865 7.74057C23.6474 9.11194 23.6627 9.52334 23.6627 12.9924C23.6627 16.4665 23.6474 16.8779 23.5865 18.2442C23.5306 19.514 23.3172 20.1996 23.1393 20.6568C22.9056 21.2612 22.6211 21.698 22.1688 22.15C21.7115 22.6072 21.2797 22.8865 20.675 23.1201C20.2177 23.2979 19.5267 23.5112 18.2615 23.5671C16.8896 23.6281 16.478 23.6433 13.0076 23.6433C9.53215 23.6433 9.12058 23.6281 7.75376 23.5671C6.48349 23.5112 5.79754 23.2979 5.34024 23.1201C4.73559 22.8865 4.29861 22.6021 3.84639 22.15C3.3891 21.6929 3.10963 21.2612 2.8759 20.6568C2.69807 20.1996 2.48466 19.5089 2.42877 18.2442C2.36779 16.8728 2.35255 16.4614 2.35255 12.9924C2.35255 9.51827 2.36779 9.10686 2.42877 7.74057C2.48466 6.47079 2.69807 5.78511 2.8759 5.32799C3.10963 4.72358 3.39418 4.28677 3.84639 3.83473C4.30369 3.37761 4.73559 3.09826 5.34024 2.86462C5.79754 2.68685 6.48857 2.47353 7.75376 2.41766C9.12058 2.35671 9.53215 2.34147 13.0076 2.34147ZM13.0076 0C9.47626 0 9.0342 0.0152373 7.64706 0.0761868C6.265 0.137136 5.31483 0.360617 4.49169 0.680602C3.63299 1.01582 2.90639 1.45771 2.18487 2.18402C1.45828 2.90525 1.01622 3.63157 0.680868 4.48486C0.360758 5.31276 0.13719 6.25747 0.0762165 7.63899C0.0152433 9.03067 0 9.47255 0 13.0025C0 16.5325 0.0152433 16.9744 0.0762165 18.361C0.13719 19.7425 0.360758 20.6923 0.680868 21.5151C1.01622 22.3735 1.45828 23.0998 2.18487 23.8211C2.90639 24.5423 3.63299 24.9893 4.48661 25.3194C5.31483 25.6394 6.25992 25.8629 7.64198 25.9238C9.02912 25.9848 9.47117 26 13.0025 26C16.5339 26 16.976 25.9848 18.3631 25.9238C19.7452 25.8629 20.6953 25.6394 21.5185 25.3194C22.3721 24.9893 23.0987 24.5423 23.8202 23.8211C24.5417 23.0998 24.9889 22.3735 25.3191 21.5202C25.6392 20.6923 25.8628 19.7476 25.9238 18.3661C25.9848 16.9795 26 16.5376 26 13.0076C26 9.47763 25.9848 9.03575 25.9238 7.64915C25.8628 6.26763 25.6392 5.31784 25.3191 4.49502C24.999 3.63157 24.557 2.90525 23.8304 2.18402C23.1089 1.46279 22.3823 1.01582 21.5286 0.685681C20.7004 0.365696 19.7553 0.142215 18.3733 0.0812659C16.981 0.0152374 16.539 0 13.0076 0Z" fill="white"/>
<path d="M13.0076 6.3235C9.31876 6.3235 6.32599 9.3151 6.32599 13.0025C6.32599 16.69 9.31876 19.6816 13.0076 19.6816C16.6965 19.6816 19.6893 16.69 19.6893 13.0025C19.6893 9.3151 16.6965 6.3235 13.0076 6.3235ZM13.0076 17.335C10.6144 17.335 8.67346 15.3948 8.67346 13.0025C8.67346 10.6103 10.6144 8.67005 13.0076 8.67005C15.4008 8.67005 17.3418 10.6103 17.3418 13.0025C17.3418 15.3948 15.4008 17.335 13.0076 17.335Z" fill="white"/>
<path d="M21.5134 6.05934C21.5134 6.92279 20.8122 7.61863 19.9535 7.61863C19.0897 7.61863 18.3936 6.91771 18.3936 6.05934C18.3936 5.19589 19.0948 4.50005 19.9535 4.50005C20.8122 4.50005 21.5134 5.20096 21.5134 6.05934Z" fill="white"/>
</svg>
