<svg width="27" height="22" viewBox="0 0 27 22" fill="none" xmlns="http://www.w3.org/2000/svg">
<path d="M8.67934 21.5625C18.4882 21.5625 23.8548 13.434 23.8548 6.38706C23.8548 6.15855 23.8497 5.92495 23.8396 5.69644C24.8835 4.94146 25.7845 4.00632 26.5 2.93495C25.5277 3.36753 24.4954 3.65004 23.4384 3.77284C24.5514 3.1057 25.3847 2.05764 25.784 0.82296C24.7369 1.44348 23.5919 1.88121 22.3979 2.11737C21.5934 1.26257 20.5297 0.696588 19.3713 0.506934C18.2129 0.31728 17.0243 0.514517 15.9892 1.06815C14.9541 1.62178 14.1303 2.50098 13.645 3.5698C13.1597 4.63862 13.04 5.83754 13.3045 6.9812C11.1844 6.87481 9.11026 6.32406 7.21665 5.36465C5.32303 4.40525 3.65217 3.0586 2.31238 1.41202C1.63143 2.58606 1.42306 3.97533 1.72962 5.29748C2.03617 6.61963 2.83465 7.77545 3.96277 8.53003C3.11585 8.50314 2.28747 8.27512 1.54609 7.86479V7.93081C1.54534 9.16287 1.97127 10.3572 2.7515 11.3107C3.53173 12.2642 4.6181 12.9182 5.82594 13.1613C5.04139 13.3759 4.21798 13.4072 3.41941 13.2527C3.76024 14.3123 4.42337 15.239 5.31625 15.9036C6.20913 16.5681 7.28721 16.9374 8.40004 16.9597C6.51079 18.4437 4.17702 19.2487 1.77461 19.2449C1.34856 19.2442 0.922932 19.2181 0.5 19.1667C2.94059 20.7324 5.77966 21.564 8.67934 21.5625Z" fill="white"/>
</svg>
